<svg id="visual" viewBox="0 0 3812 1906" width="3812" height="1906" xmlns="http://www.w3.org/2000/svg" xmlns:xlink="http://www.w3.org/1999/xlink" version="1.1"><rect x="0" y="0" width="3812" height="1906" fill="#001220"></rect><path d="M0 1210L63.5 1219.2C127 1228.3 254 1246.7 381 1248.5C508 1250.3 635 1235.7 762.2 1212.5C889.3 1189.3 1016.7 1157.7 1143.8 1147.8C1271 1138 1398 1150 1525 1167.3C1652 1184.7 1779 1207.3 1906 1227.3C2033 1247.3 2160 1264.7 2287 1280.5C2414 1296.3 2541 1310.7 2668.2 1321.7C2795.3 1332.7 2922.7 1340.3 3049.8 1325.3C3177 1310.3 3304 1272.7 3431 1274C3558 1275.3 3685 1315.7 3748.5 1335.8L3812 1356L3812 1907L3748.5 1907C3685 1907 3558 1907 3431 1907C3304 1907 3177 1907 3049.8 1907C2922.7 1907 2795.3 1907 2668.2 1907C2541 1907 2414 1907 2287 1907C2160 1907 2033 1907 1906 1907C1779 1907 1652 1907 1525 1907C1398 1907 1271 1907 1143.8 1907C1016.7 1907 889.3 1907 762.2 1907C635 1907 508 1907 381 1907C254 1907 127 1907 63.5 1907L0 1907Z" fill="#fa7268"></path><path d="M0 1458L63.5 1438C127 1418 254 1378 381 1348.2C508 1318.3 635 1298.7 762.2 1325.7C889.3 1352.7 1016.7 1426.3 1143.8 1430C1271 1433.7 1398 1367.3 1525 1358.3C1652 1349.3 1779 1397.7 1906 1420.5C2033 1443.3 2160 1440.7 2287 1422.8C2414 1405 2541 1372 2668.2 1342.3C2795.3 1312.7 2922.7 1286.3 3049.8 1302.3C3177 1318.3 3304 1376.7 3431 1390.2C3558 1403.7 3685 1372.3 3748.5 1356.7L3812 1341L3812 1907L3748.5 1907C3685 1907 3558 1907 3431 1907C3304 1907 3177 1907 3049.8 1907C2922.7 1907 2795.3 1907 2668.2 1907C2541 1907 2414 1907 2287 1907C2160 1907 2033 1907 1906 1907C1779 1907 1652 1907 1525 1907C1398 1907 1271 1907 1143.8 1907C1016.7 1907 889.3 1907 762.2 1907C635 1907 508 1907 381 1907C254 1907 127 1907 63.5 1907L0 1907Z" fill="#ef5f67"></path><path d="M0 1535L63.5 1543.7C127 1552.3 254 1569.7 381 1578.5C508 1587.3 635 1587.7 762.2 1570.5C889.3 1553.3 1016.7 1518.7 1143.8 1494.5C1271 1470.3 1398 1456.7 1525 1478.2C1652 1499.7 1779 1556.3 1906 1568.3C2033 1580.3 2160 1547.7 2287 1513.2C2414 1478.7 2541 1442.3 2668.2 1429C2795.3 1415.7 2922.7 1425.3 3049.8 1457.2C3177 1489 3304 1543 3431 1556.8C3558 1570.7 3685 1544.3 3748.5 1531.2L3812 1518L3812 1907L3748.5 1907C3685 1907 3558 1907 3431 1907C3304 1907 3177 1907 3049.8 1907C2922.7 1907 2795.3 1907 2668.2 1907C2541 1907 2414 1907 2287 1907C2160 1907 2033 1907 1906 1907C1779 1907 1652 1907 1525 1907C1398 1907 1271 1907 1143.8 1907C1016.7 1907 889.3 1907 762.2 1907C635 1907 508 1907 381 1907C254 1907 127 1907 63.5 1907L0 1907Z" fill="#e34c67"></path><path d="M0 1676L63.5 1680.8C127 1685.7 254 1695.3 381 1681.8C508 1668.3 635 1631.7 762.2 1617.2C889.3 1602.7 1016.7 1610.3 1143.8 1604.2C1271 1598 1398 1578 1525 1590.8C1652 1603.7 1779 1649.3 1906 1654.8C2033 1660.3 2160 1625.7 2287 1629.5C2414 1633.3 2541 1675.7 2668.2 1675.7C2795.3 1675.7 2922.7 1633.3 3049.8 1622.7C3177 1612 3304 1633 3431 1638C3558 1643 3685 1632 3748.5 1626.5L3812 1621L3812 1907L3748.5 1907C3685 1907 3558 1907 3431 1907C3304 1907 3177 1907 3049.8 1907C2922.7 1907 2795.3 1907 2668.2 1907C2541 1907 2414 1907 2287 1907C2160 1907 2033 1907 1906 1907C1779 1907 1652 1907 1525 1907C1398 1907 1271 1907 1143.8 1907C1016.7 1907 889.3 1907 762.2 1907C635 1907 508 1907 381 1907C254 1907 127 1907 63.5 1907L0 1907Z" fill="#d53867"></path><path d="M0 1792L63.5 1772C127 1752 254 1712 381 1698.2C508 1684.3 635 1696.7 762.2 1705C889.3 1713.3 1016.7 1717.7 1143.8 1730.8C1271 1744 1398 1766 1525 1759C1652 1752 1779 1716 1906 1720.8C2033 1725.7 2160 1771.3 2287 1791.2C2414 1811 2541 1805 2668.2 1787.5C2795.3 1770 2922.7 1741 3049.8 1723.7C3177 1706.3 3304 1700.7 3431 1706.2C3558 1711.7 3685 1728.3 3748.5 1736.7L3812 1745L3812 1907L3748.5 1907C3685 1907 3558 1907 3431 1907C3304 1907 3177 1907 3049.8 1907C2922.7 1907 2795.3 1907 2668.2 1907C2541 1907 2414 1907 2287 1907C2160 1907 2033 1907 1906 1907C1779 1907 1652 1907 1525 1907C1398 1907 1271 1907 1143.8 1907C1016.7 1907 889.3 1907 762.2 1907C635 1907 508 1907 381 1907C254 1907 127 1907 63.5 1907L0 1907Z" fill="#c62368"></path></svg>